<svg width="284" height="294" viewBox="0 0 284 294" fill="none" xmlns="http://www.w3.org/2000/svg">
<g id="062-responsive">
<path id="Shape" d="M251.622 105.815C311.242 157.788 184.391 256.159 128.147 200.506C54.5653 127.662 14.4561 181.878 14.4561 102.537C14.4561 23.197 25.3273 43.4346 108.693 7.84631C181.359 -23.1425 180.1 43.492 251.622 105.815Z" fill="#F1F6EF"/>
<path id="Shape_2" d="M281.664 192.366C281.664 201.197 274.506 208.365 265.688 208.365H247.479C238.66 208.365 231.502 201.197 231.502 192.366V55.5491C231.502 46.7185 238.66 39.5508 247.479 39.5508H265.688C274.506 39.5508 281.664 46.7185 281.664 55.5491V192.366Z" fill="#8FAD55"/>
<g id="Group">
<path id="Shape_3" d="M269.757 55.2911C269.757 46.7734 262.863 39.8672 254.36 39.8672H78.5015C69.9987 39.8672 62.9321 46.7734 62.9321 55.2911V156.065H269.757V55.2911V55.2911Z" fill="white"/>
<path id="Shape_4" d="M62.9321 156.004V193.643C62.9321 202.161 69.9987 209.24 78.5015 209.24H254.36C262.863 209.24 269.757 202.161 269.757 193.643V156.004H62.9321Z" fill="white"/>
</g>
<path id="Shape_5" d="M229.805 155.309L177.482 208.364H252.035C260.407 208.364 267.194 201.309 267.194 192.82V155.309H229.805Z" fill="#D5D5D5"/>
<path id="Oval" d="M165.424 185.212C169.952 185.212 173.623 181.541 173.623 177.012C173.623 172.484 169.952 168.812 165.424 168.812C160.895 168.812 157.224 172.484 157.224 177.012C157.224 181.541 160.895 185.212 165.424 185.212Z" fill="white"/>
<path id="Shape_6" fill-rule="evenodd" clip-rule="evenodd" d="M155.295 177.98C155.295 184.111 160.258 189.074 166.389 189.074C172.461 189.074 177.482 184.111 177.482 177.98C177.482 171.85 172.519 166.887 166.389 166.887C160.258 166.887 155.295 171.85 155.295 177.98ZM160.141 178.04C160.141 174.595 162.944 171.793 166.389 171.793C169.833 171.793 172.636 174.595 172.636 178.04C172.636 181.485 169.833 184.288 166.389 184.288C162.944 184.288 160.141 181.485 160.141 178.04Z" fill="#688236"/>
<path id="Shape_7" d="M211.245 238.267H157.18L151.437 208.363H205.502L211.245 238.267Z" fill="white"/>
<path id="Shape_8" d="M199.669 238.267H133.108L140.618 208.363H194.051L199.669 238.267Z" fill="#D5D5D5"/>
<path id="Shape_9" d="M225.714 241.646C225.714 239.241 223.138 237.305 219.931 237.305H118.634C115.427 237.305 112.85 239.241 112.85 241.646V241.646C112.85 244.051 115.427 245.987 118.634 245.987H219.931C223.08 245.987 225.714 244.051 225.714 241.646V241.646Z" fill="white"/>
<path id="Shape_10" d="M267.194 54.7959C267.194 46.3769 260.363 39.5508 251.937 39.5508H234.062L127.32 154.344H267.194V54.7959V54.7959Z" fill="#D5D5D5"/>
<rect id="Rectangle-path" x="73.2998" y="50.1602" width="184.248" height="103.218" fill="white"/>
<path id="Shape_11" d="M128.285 153.378H256.583V50.1602H223.683L128.285 153.378Z" fill="#D5D5D5"/>
<path id="Shape_12" fill-rule="evenodd" clip-rule="evenodd" d="M73.7777 156.271H258.09C259.408 156.271 260.497 155.185 260.44 153.869V50.6326C260.44 49.3172 259.408 48.2305 258.09 48.2305H73.7777C72.4595 48.2305 71.3706 49.3172 71.3706 50.6326V153.869C71.3706 155.185 72.4595 156.271 73.7777 156.271ZM255.683 151.525H76.1274V52.9784H255.683V151.525Z" fill="#688236"/>
<path id="Shape_13" d="M185.755 111.901H91.0727C89.7608 111.901 88.7341 110.81 88.7341 109.49C88.7341 108.169 89.8178 107.078 91.0727 107.078H185.755C187.066 107.078 188.093 108.169 188.093 109.49C188.093 110.81 187.066 111.901 185.755 111.901Z" fill="#FFCD1D"/>
<path id="Shape_14" d="M187.603 111.901C188.96 111.901 190.022 110.81 190.022 109.49C190.022 108.169 188.901 107.078 187.603 107.078H172.379L167.835 111.844L187.603 111.901V111.901Z" fill="#F2C731"/>
<g id="Group_2">
<path id="Shape_15" d="M184.758 127.053H90.5085C89.2026 127.053 88.1807 125.933 88.1807 124.577C88.1807 123.222 89.2594 122.102 90.5085 122.102H184.758C186.063 122.102 187.085 123.222 187.085 124.577C187.085 125.933 186.063 127.053 184.758 127.053Z" fill="#688236"/>
<path id="Shape_16" d="M184.758 142.382H90.5085C89.2026 142.382 88.1807 141.261 88.1807 139.906C88.1807 138.55 89.2594 137.43 90.5085 137.43H184.758C186.063 137.43 187.085 138.55 187.085 139.906C187.085 141.261 186.063 142.382 184.758 142.382Z" fill="#688236"/>
</g>
<rect id="Rectangle-path_2" x="90.6636" y="68.4883" width="148.556" height="29.9042" fill="#FFE37E"/>
<path id="Shape_17" d="M178.447 98.3924H238.255V68.4883H206.219L178.447 98.3924Z" fill="#F2C731"/>
<path id="Shape_18" fill-rule="evenodd" clip-rule="evenodd" d="M91.0841 100.321H239.764C241.082 100.321 242.114 99.2845 242.114 97.9023V68.0126C242.114 66.688 241.082 65.5938 239.764 65.5938H91.0841C89.8231 65.5938 88.7341 66.688 88.7341 68.0126V97.9023C88.7341 99.2269 89.7658 100.321 91.0841 100.321ZM237.356 95.5418H93.4342V70.4321H237.356V95.5418Z" fill="#688236"/>
<rect id="Rectangle-path_3" x="198.704" y="109.969" width="41.48" height="29.9042" fill="white"/>
<g id="Group_3">
<path id="Shape_19" fill-rule="evenodd" clip-rule="evenodd" d="M198.556 142.013H240.077C241.392 142.013 242.422 140.922 242.422 139.6V109.777C242.422 108.455 241.392 107.363 240.077 107.363H198.556C197.297 107.363 196.211 108.455 196.211 109.777V139.6C196.211 140.922 197.24 142.013 198.556 142.013ZM237.675 137.243H200.9V112.19H237.675V137.243Z" fill="#688236"/>
<path id="Shape_20" fill-rule="evenodd" clip-rule="evenodd" d="M77.8239 36.8555C67.9869 36.8555 59.9229 44.8428 59.9229 54.669V192.868C59.9229 202.751 67.9297 210.796 77.8239 210.796H137.589L131.298 236.022H118.716C114.141 236.022 110.538 238.953 110.538 242.688C110.538 246.423 114.141 249.354 118.716 249.354H219.888C224.463 249.354 228.067 246.423 228.067 242.688C228.067 238.953 224.463 236.022 219.888 236.022H212.51L207.763 210.796H265.699C275.822 210.796 284 202.521 284 192.408V55.2436C284 45.0727 275.764 36.8555 265.699 36.8555H77.8239ZM64.727 54.671C64.727 47.4881 70.6177 41.6269 77.8811 41.6269H252.945C260.094 41.6269 265.927 47.4881 265.927 54.671V152.875H64.727V54.671ZM191.979 210.799H142.508L136.274 236.025H196.725L191.979 210.799ZM223.262 242.69C223.262 243.437 221.947 244.586 219.831 244.586H118.716C116.6 244.586 115.284 243.494 115.284 242.69C115.284 241.885 116.6 240.793 118.716 240.793H219.888C221.947 240.793 223.262 241.885 223.262 242.69ZM201.587 236.025H207.649L202.902 210.799H196.84L201.587 236.025ZM77.8238 206.028C70.732 206.028 64.6697 199.994 64.6697 192.869V157.701H265.813V192.869C265.813 200.109 259.98 206.028 252.831 206.028H77.8238ZM265.699 205.971C273.191 205.971 279.253 199.88 279.253 192.352V55.2457C279.253 47.718 273.191 41.6269 265.699 41.6269H265.012C268.501 44.9023 270.674 49.5568 270.674 54.671V192.812C270.674 197.984 268.444 202.696 264.955 205.971H265.699Z" fill="#688236"/>
</g>
<path id="Shape_21" d="M103.068 251.773H18.4503C14.1255 251.773 10.5974 248.214 10.5974 243.851V122.716C10.5974 118.352 14.1255 114.793 18.4503 114.793H103.068C107.392 114.793 110.92 118.352 110.92 122.716V243.851C110.977 248.214 107.449 251.773 103.068 251.773Z" fill="#8FAD55"/>
<path id="Shape_22" d="M94.3863 251.773H9.76843C5.44364 251.773 1.91553 248.214 1.91553 243.851V122.716C1.91553 118.352 5.44364 114.793 9.76843 114.793H94.3863C98.711 114.793 102.239 118.352 102.239 122.716V243.851C102.239 248.214 98.711 251.773 94.3863 251.773Z" fill="white"/>
<path id="Shape_23" d="M1.91553 243.857V244.831C1.91553 249.187 5.44364 252.74 9.76843 252.74H94.3863C98.711 252.74 102.239 249.187 102.239 244.831V142.77L1.91553 243.857Z" fill="#D5D5D5"/>
<rect id="Rectangle-path_4" x="14.4561" y="127.332" width="76.2074" height="107.076" fill="white"/>
<path id="Shape_24" d="M14.4561 231.436V234.41H90.6634V154.344L14.4561 231.436Z" fill="#D5D5D5"/>
<path id="Shape_25" fill-rule="evenodd" clip-rule="evenodd" d="M13.9113 236.337H91.208C92.5259 236.337 93.5573 235.247 93.5573 233.928V126.846C93.5573 125.527 92.5259 124.438 91.208 124.438H13.9113C12.6507 124.438 11.562 125.527 11.562 126.846V233.928C11.562 235.247 12.5934 236.337 13.9113 236.337ZM88.8588 231.575H16.3179V129.197H88.8588V231.575Z" fill="#688236"/>
<rect id="Rectangle-path_5" x="54.0068" y="170.742" width="29.9042" height="22.187" fill="white"/>
<path id="Shape_26" d="M54.0068 192.929H83.911V170.742H75.902L54.0068 192.583V192.929Z" fill="#D5D5D5"/>
<path id="Shape_27" fill-rule="evenodd" clip-rule="evenodd" d="M54.5005 194.862H84.4399C85.7667 194.862 86.8051 193.77 86.8051 192.448V170.265C86.8051 168.943 85.7667 167.852 84.4399 167.852H54.5005C53.1737 167.852 52.0776 168.943 52.0776 170.265V192.448C52.0776 193.77 53.1737 194.862 54.5005 194.862ZM82.0747 190.092H56.9233V172.679H82.0747V190.092Z" fill="#688236"/>
<path id="Shape_28" d="M44.8437 175.565H24.5839C23.2638 175.565 22.1733 174.474 22.1733 173.154C22.1733 171.833 23.2638 170.742 24.5839 170.742H44.8437C46.1638 170.742 47.2542 171.833 47.2542 173.154C47.2542 174.474 46.1638 175.565 44.8437 175.565Z" fill="#FFCD1D"/>
<g id="Group_4">
<path id="Shape_29" d="M44.0184 184.648H23.7999C22.4825 184.648 21.3943 183.539 21.3943 182.197C21.3943 180.855 22.4825 179.746 23.7999 179.746H44.0184C45.3357 179.746 46.4239 180.855 46.4239 182.197C46.3667 183.598 45.3357 184.648 44.0184 184.648Z" fill="#688236"/>
<path id="Shape_30" d="M44.0184 193.75H23.7999C22.4825 193.75 21.3943 192.641 21.3943 191.299C21.3943 189.956 22.4825 188.848 23.7999 188.848H44.0184C45.3357 188.848 46.4239 189.956 46.4239 191.299C46.3667 192.641 45.3357 193.75 44.0184 193.75Z" fill="#688236"/>
<path id="Shape_31" d="M73.7447 208.281H23.7999C22.4825 208.281 21.3943 207.172 21.3943 205.83C21.3943 204.488 22.4825 203.379 23.7999 203.379H73.7447C75.062 203.379 76.093 204.488 76.093 205.83C76.093 207.172 75.062 208.281 73.7447 208.281Z" fill="#688236"/>
<path id="Shape_32" d="M73.7447 217.386H23.7999C22.4825 217.386 21.3943 216.277 21.3943 214.935C21.3943 213.593 22.4825 212.484 23.7999 212.484H73.7447C75.062 212.484 76.093 213.593 76.093 214.935C76.093 216.277 75.062 217.386 73.7447 217.386Z" fill="#688236"/>
<path id="Shape_33" d="M73.7447 226.429H23.7999C22.4825 226.429 21.3943 225.32 21.3943 223.978C21.3943 222.636 22.4825 221.527 23.7999 221.527H73.7447C75.062 221.527 76.093 222.636 76.093 223.978C76.093 225.32 75.062 226.429 73.7447 226.429Z" fill="#688236"/>
</g>
<rect id="Rectangle-path_6" x="22.1733" y="136.98" width="61.7376" height="24.1163" fill="#FFE37E"/>
<g id="Group_5">
<path id="Shape_34" fill-rule="evenodd" clip-rule="evenodd" d="M22.1394 163.324H82.9809C84.2899 163.324 85.3144 162.288 85.3144 160.906V137.016C85.3144 135.691 84.2899 134.598 82.9809 134.598H22.1394C20.8304 134.598 19.749 135.691 19.749 137.016V160.906C19.749 162.23 20.8304 163.324 22.1394 163.324ZM80.6475 158.545H24.5299V139.432H80.6475V158.545Z" fill="#688236"/>
<path id="Shape_35" fill-rule="evenodd" clip-rule="evenodd" d="M103.129 113.18H10.2446C4.61006 113.18 0 117.843 0 123.542V245.01C0 250.709 4.61006 255.372 10.2446 255.372H103.129C108.763 255.372 113.373 250.709 113.373 245.01V123.542C113.373 117.785 108.763 113.18 103.129 113.18ZM4.72387 244.954V123.486C4.72387 120.435 7.17118 117.902 10.2446 117.902H94.8762C97.8927 117.902 100.397 120.378 100.397 123.486V244.954C100.397 248.005 97.9496 250.538 94.8762 250.538H10.2446C7.17118 250.538 4.72387 248.063 4.72387 244.954ZM103.47 250.538C106.373 250.308 108.649 247.89 108.649 244.954V123.486C108.649 120.493 106.316 118.075 103.47 117.902C104.495 119.514 105.064 121.414 105.064 123.486V244.954C105.064 247.027 104.495 248.927 103.47 250.538Z" fill="#688236"/>
</g>
<g id="Group_6">
<path id="Oval_2" d="M166.619 265.976C201.269 265.976 229.358 263.476 229.358 260.392C229.358 257.308 201.269 254.809 166.619 254.809C131.969 254.809 103.879 257.308 103.879 260.392C103.879 263.476 131.969 265.976 166.619 265.976Z" fill="#697A4A"/>
<path id="Oval_3" d="M54.6575 268.243C80.3615 268.243 101.199 266.498 101.199 264.346C101.199 262.194 80.3615 260.449 54.6575 260.449C28.9535 260.449 8.11621 262.194 8.11621 264.346C8.11621 266.498 28.9535 268.243 54.6575 268.243Z" fill="#697A4A"/>
<path id="Oval_4" d="M106.788 293.663C122.979 293.663 136.105 291.632 136.105 289.127C136.105 286.621 122.979 284.59 106.788 284.59C90.5973 284.59 77.4719 286.621 77.4719 289.127C77.4719 291.632 90.5973 293.663 106.788 293.663Z" fill="#697A4A"/>
</g>
<path id="Shape_36" d="M132.886 271.067H90.886C86.5134 271.067 82.9463 267.5 82.9463 263.129V182.54C82.9463 178.168 86.5134 174.602 90.886 174.602H132.886C137.258 174.602 140.825 178.168 140.825 182.54V263.129C140.825 267.5 137.258 271.067 132.886 271.067Z" fill="#8FAD55"/>
<path id="Shape_37" d="M125.168 271.067H83.1687C78.7961 271.067 75.229 267.5 75.229 263.129V182.54C75.229 178.168 78.7961 174.602 83.1687 174.602H125.168C129.541 174.602 133.108 178.168 133.108 182.54V263.129C133.108 267.5 129.541 271.067 125.168 271.067Z" fill="#E1F0FA"/>
<path id="Shape_38" d="M75.229 253.697V262.296C75.229 266.595 78.7961 270.102 83.1687 270.102H125.168C129.541 270.102 133.108 266.595 133.108 262.296V196.789L75.229 253.697Z" fill="#D5D5D5"/>
<rect id="Rectangle-path_7" x="82.9463" y="184.25" width="41.48" height="72.3488" fill="white"/>
<path id="Shape_39" d="M82.9463 246.26V255.634H124.426V204.508L82.9463 246.26Z" fill="#D5D5D5"/>
<path id="Shape_40" fill-rule="evenodd" clip-rule="evenodd" d="M83.4152 256.594H125.884C127.23 256.594 128.341 255.574 128.283 254.271V183.731C128.283 182.428 127.23 181.352 125.884 181.352H83.4152C82.1283 181.352 81.0168 182.428 81.0168 183.731V254.215C81.0168 255.518 82.0698 256.594 83.4152 256.594ZM123.427 251.892H85.8137V186.054H123.427V251.892Z" fill="#688236"/>
<rect id="Rectangle-path_8" x="91.6282" y="193.895" width="24.1163" height="20.2577" fill="#FFE37E"/>
<path id="Shape_41" fill-rule="evenodd" clip-rule="evenodd" d="M91.0417 216.081H114.399C115.694 216.081 116.763 215.05 116.707 213.675V194.371C116.707 193.053 115.694 191.965 114.399 191.965H91.0417C89.8035 191.965 88.7341 193.053 88.7341 194.371V213.675C88.7341 214.993 89.7472 216.081 91.0417 216.081ZM112.092 211.327H93.4058V196.777H112.092V211.327Z" fill="#688236"/>
<path id="Shape_42" d="M114.401 225.73H91.0419C89.7473 225.73 88.7341 224.639 88.7341 223.318C88.7341 221.997 89.8036 220.906 91.0419 220.906H114.401C115.696 220.906 116.709 221.997 116.709 223.318C116.709 224.639 115.696 225.73 114.401 225.73Z" fill="#FFCD1D"/>
<path id="Shape_43" d="M115.277 225.73C116.621 225.73 117.674 224.639 117.674 223.318C117.674 221.997 116.563 220.906 115.277 220.906H107.092L102.239 225.73H115.277V225.73Z" fill="#E3B515"/>
<g id="Group_7">
<path id="Shape_44" d="M116.05 235.026H91.9652C90.6303 235.026 89.5857 233.938 89.5857 232.622C89.5857 231.306 90.6884 230.219 91.9652 230.219H116.05C117.385 230.219 118.43 231.306 118.43 232.622C118.43 233.938 117.385 235.026 116.05 235.026Z" fill="#688236"/>
<path id="Shape_45" d="M116.05 243.955H91.9652C90.6303 243.955 89.5857 242.868 89.5857 241.552C89.5857 240.236 90.6884 239.148 91.9652 239.148H116.05C117.385 239.148 118.43 240.236 118.43 241.552C118.43 242.868 117.385 243.955 116.05 243.955Z" fill="#688236"/>
<path id="Shape_46" fill-rule="evenodd" clip-rule="evenodd" d="M133.055 172.02H83.1437C77.3982 172.02 72.6973 176.655 72.6973 182.32V262.492C72.6973 268.158 77.3982 272.793 83.1437 272.793H132.997C138.742 272.793 143.443 268.158 143.443 262.492V182.32C143.443 176.655 138.8 172.02 133.055 172.02ZM83.1437 267.985C80.0678 267.985 77.5142 265.524 77.5142 262.434V182.319C77.5142 179.286 80.0098 176.768 83.1437 176.768H125.51C128.586 176.768 131.139 179.229 131.139 182.319V262.491C131.139 265.524 128.644 268.042 125.51 268.042H83.1437V267.985ZM134.389 267.872C136.827 267.243 138.626 265.068 138.626 262.493V182.321C138.626 179.746 136.827 177.571 134.389 176.942C135.376 178.487 135.956 180.375 135.956 182.321V262.493C135.956 264.496 135.376 266.327 134.389 267.872Z" fill="#688236"/>
</g>
</g>
</svg>
