<svg width="278" height="301" viewBox="0 0 278 301" fill="none" xmlns="http://www.w3.org/2000/svg">
<g id="analysis">
<path id="Oval" d="M237.389 300.001C259.378 300.001 277.203 298.136 277.203 295.835C277.203 293.533 259.378 291.668 237.389 291.668C215.399 291.668 197.574 293.533 197.574 295.835C197.574 298.136 215.399 300.001 237.389 300.001Z" fill="#697A4A"/>
<path id="Shape" d="M80.6583 241.022C0.84804 274.999 -27.7187 99.6137 53.7996 70.8409C160.469 33.1789 152.046 -16.7642 204.88 5.51719C235.096 18.2661 254.827 44.9921 245.05 144.878C236.568 231.957 176.372 200.26 80.6583 241.022Z" fill="#F1F6EF"/>
<rect id="Rectangle-path" x="162.032" y="176.852" width="24.0741" height="24.0741" transform="rotate(-45 162.032 176.852)" fill="#D5D5D5"/>
<path id="Shape_2" d="M264.233 265.787L253.929 276.002C247.805 282.073 237.795 282.073 231.671 276.002L171.611 216.462C165.487 210.391 165.487 200.468 171.611 194.397L181.915 184.182C188.039 178.111 198.049 178.111 204.173 184.182L264.233 243.722C270.416 249.793 270.416 259.657 264.233 265.787Z" fill="#8FAD55"/>
<g id="Group">
<path id="Shape_3" d="M269.253 258.126L259.015 268.41C252.931 274.522 242.986 274.522 236.902 268.41L177.23 208.466C171.146 202.354 171.146 192.363 177.23 186.251L187.468 175.967C193.552 169.855 203.497 169.855 209.581 175.967L269.253 235.911C275.396 242.023 275.396 251.955 269.253 258.126Z" fill="white"/>
<path id="Shape_4" d="M162.546 184.135L185.362 161.215C187.292 159.276 187.292 156.102 185.362 154.163L177.171 145.935C175.241 143.996 172.082 143.996 170.151 145.935L147.336 168.855C145.405 170.794 145.405 173.968 147.336 175.907L155.526 184.135C157.456 186.074 160.615 186.074 162.546 184.135Z" fill="white"/>
</g>
<path id="Oval_2" d="M163.027 171.936C193.04 141.924 193.04 93.2638 163.027 63.2513C133.015 33.2388 84.355 33.2388 54.3425 63.2513C24.3299 93.2638 24.3299 141.924 54.3425 171.936C84.355 201.949 133.015 201.949 163.027 171.936Z" fill="#8FAD55"/>
<g id="Group_2">
<path id="Oval_3" d="M60.3254 58.9705C30.3357 88.9603 30.2252 137.473 60.0786 167.326C89.9321 197.179 138.444 197.069 168.434 167.079C198.424 137.089 198.534 88.5765 168.681 58.7232C138.828 28.8699 90.3151 28.9806 60.3254 58.9705Z" fill="#FFCD1D"/>
<path id="Oval_4" d="M66.8711 65.5141C40.5193 91.8661 40.4272 134.499 66.6655 160.737C92.9038 186.975 135.536 186.883 161.888 160.531C188.24 134.179 188.332 91.5462 162.094 65.308C135.856 39.0699 93.2229 39.1622 66.8711 65.5141Z" fill="white"/>
<path id="Oval_5" d="M80.8683 79.5131C62.2697 98.1118 62.1961 128.192 80.7038 146.7C99.2116 165.208 129.292 165.134 147.891 146.535C166.489 127.937 166.563 97.8559 148.055 79.3483C129.548 60.8406 99.4669 60.9144 80.8683 79.5131Z" fill="#EFEFEF"/>
</g>
<rect id="Rectangle-path_2" x="181.078" y="211.418" width="45.3704" height="75.9259" transform="rotate(-45 181.078 211.418)" fill="#D5D5D5"/>
<g id="Group_3">
<rect id="Rectangle-path_3" x="182.129" y="211.879" width="45.3391" height="15.1132" transform="rotate(-45 182.129 211.879)" fill="#8FAD55"/>
<rect id="Rectangle-path_4" x="224.918" y="254.613" width="45.3391" height="15.1132" transform="rotate(-45 224.918 254.613)" fill="#8FAD55"/>
</g>
<g id="Group_4">
<path id="Oval_6" d="M257.775 106.958C264.337 106.958 269.656 101.555 269.656 94.891C269.656 88.2267 264.337 82.8242 257.775 82.8242C251.214 82.8242 245.895 88.2267 245.895 94.891C245.895 101.555 251.214 106.958 257.775 106.958Z" fill="white"/>
<path id="Oval_7" d="M201.27 49.5086C207.832 49.5086 213.151 44.1061 213.151 37.4418C213.151 30.7775 207.832 25.375 201.27 25.375C194.709 25.375 189.39 30.7775 189.39 37.4418C189.39 44.1061 194.709 49.5086 201.27 49.5086Z" fill="white"/>
</g>
<path id="Shape_5" fill-rule="evenodd" clip-rule="evenodd" d="M259.065 79.4543C257.246 79.4543 255.544 79.8058 253.901 80.3916L215.291 41.8466C215.878 40.265 216.23 38.5076 216.23 36.6917C216.23 28.7249 209.717 22.2227 201.737 22.2227C193.756 22.2227 187.243 28.7249 187.243 36.6917C187.243 39.152 187.889 41.4366 188.945 43.4868L172.574 59.8304C175.097 61.1777 177.151 63.2865 178.5 65.864L194.93 49.4619C196.984 50.5163 199.272 51.1607 201.737 51.1607C204.846 51.1607 207.663 50.1648 210.01 48.5246L247.153 85.6051C245.51 87.9483 244.513 90.8186 244.513 93.8648C244.513 101.832 251.026 108.334 259.006 108.334C266.986 108.334 273.499 101.832 273.499 93.8648C273.558 85.898 267.045 79.4543 259.065 79.4543ZM192.172 36.6903C192.172 31.3596 196.514 27.0833 201.795 27.0833C207.135 27.0833 211.418 31.4182 211.418 36.6903C211.418 42.021 207.076 46.2972 201.795 46.2972C196.514 46.3558 192.172 42.021 192.172 36.6903ZM249.441 93.9241C249.441 99.1962 253.725 103.531 259.065 103.531C264.404 103.531 268.746 99.1962 268.688 93.9241C268.688 88.652 264.346 84.3171 259.065 84.3171C253.784 84.3171 249.441 88.652 249.441 93.9241Z" fill="#688236"/>
<path id="Oval_8" d="M31.8329 217.594C38.4808 217.594 43.87 212.204 43.87 205.557C43.87 198.909 38.4808 193.52 31.8329 193.52C25.1851 193.52 19.7959 198.909 19.7959 205.557C19.7959 212.204 25.1851 217.594 31.8329 217.594Z" fill="white"/>
<path id="Shape_6" fill-rule="evenodd" clip-rule="evenodd" d="M53.8943 174.074C55.5258 176.446 57.7982 178.344 60.5367 179.292L44.4552 199.749C45.9119 202.003 46.7276 204.671 46.7276 207.576C46.7276 215.641 40.26 222.222 32.3358 222.222C24.4116 222.222 17.9441 215.641 17.9441 207.576C17.9441 199.512 24.4116 192.93 32.3358 192.93C34.3752 192.93 36.3562 193.405 38.1042 194.175L53.8943 174.074ZM22.7801 207.576C22.7801 212.913 27.0336 217.301 32.3358 217.301C37.638 217.301 41.9497 212.913 41.8914 207.576C41.8914 202.239 37.5797 197.852 32.3358 197.852C27.0918 197.852 22.7801 202.18 22.7801 207.576Z" fill="#688236"/>
<path id="Shape_7" d="M170.422 57.4062L60.5366 167.22C90.7624 197.443 139.842 197.325 170.127 166.985C200.412 136.644 200.589 87.5698 170.422 57.4062Z" fill="#FFCD1D"/>
<path id="Shape_8" d="M160.091 63.8906C186.708 90.5122 186.591 133.714 159.858 160.452C133.125 187.191 89.931 187.249 63.3145 160.686L160.091 63.8906Z" fill="#EFEFEF"/>
<path id="Shape_9" d="M79.4668 147.133C98.1667 165.828 128.51 165.769 147.327 146.957C166.145 128.145 166.145 97.8095 147.504 79.1146C147.386 78.9971 147.21 78.8207 147.092 78.7031L79.0552 146.722C79.2316 146.839 79.3492 147.016 79.4668 147.133Z" fill="#D5D5D5"/>
<path id="Shape_10" fill-rule="evenodd" clip-rule="evenodd" d="M271.911 236.079L212.351 175.976C207.271 170.85 199.913 169.436 193.548 171.734L187.359 165.488L188.176 164.663C191.037 161.776 191.037 157.062 188.176 154.175L184.381 150.344C200.205 120.116 195.592 81.8748 170.541 56.5964C139.71 25.4845 89.4921 25.6023 58.4855 56.8321L52.3542 63.0191C37.3473 78.1626 29.0555 98.2556 29.0555 119.586C28.9971 140.917 37.2305 161.01 52.1207 176.035C67.0108 190.943 86.806 199.192 107.944 199.192H108.119C124.236 199.134 139.652 194.302 152.732 185.286L155.009 187.584C156.469 189.058 158.337 189.765 160.206 189.765C162.074 189.765 164.001 189.058 165.403 187.584L166.22 186.76L171.184 191.768L170.658 192.239C167.271 195.657 165.403 200.253 165.403 205.085C165.403 209.917 167.271 214.513 170.658 217.93L230.219 278.033C233.606 281.45 238.16 283.336 242.949 283.336C247.737 283.336 252.291 281.45 255.678 278.033L271.853 261.711C278.977 254.699 278.977 243.15 271.911 236.079ZM263.503 234.783L234.949 263.597L227.708 256.29L256.262 227.477L263.503 234.783ZM224.321 252.813L252.875 223.999L224.321 195.185L195.767 223.999L224.321 252.813ZM213.635 184.461L220.876 191.767L192.322 220.581L185.081 213.275L213.635 184.461ZM208.964 179.336C206.395 176.744 203.008 175.447 199.621 175.447C196.234 175.447 192.847 176.744 190.278 179.336L180.059 189.648C174.921 194.833 174.921 203.319 180.059 208.504L181.519 209.977L210.424 180.81L208.964 179.336ZM61.8723 60.1307C90.9519 30.7866 138.192 30.6687 167.096 59.895C196.059 89.1213 195.942 136.732 166.863 166.076C137.783 195.42 90.5432 195.538 61.6387 166.312C47.6244 152.17 39.9165 133.314 39.9749 113.28C40.0333 93.246 47.7996 74.3314 61.8723 60.1307ZM107.944 194.36H108.119C114.426 194.36 120.616 193.535 126.572 192.062C122.426 192.71 118.221 193.064 114.017 193.064C93.8132 193.064 73.6093 185.286 58.252 169.789C43.3618 154.704 35.1284 134.611 35.1868 113.281C35.2452 109.274 35.5371 105.267 36.1211 101.319C34.6613 107.212 33.9021 113.281 33.9021 119.468C33.8438 139.502 41.5516 158.358 55.5659 172.499C69.5218 186.582 88.1491 194.36 107.944 194.36ZM162.016 184.165C161.023 185.167 159.388 185.167 158.396 184.165L156.644 182.397C158.746 180.747 160.79 178.98 162.717 177.094L170.308 169.493C174.863 164.897 178.716 159.888 181.928 154.585L184.789 157.472C185.782 158.474 185.782 160.124 184.789 161.126L162.016 184.165ZM183.972 168.847L169.607 183.342L174.571 188.35L186.891 175.918C187.592 175.21 188.351 174.621 189.11 174.032L183.972 168.847ZM233.664 274.673L174.103 214.57C171.592 212.037 170.249 208.678 170.249 205.143C170.249 203.198 170.658 201.371 171.417 199.663C171.534 204.141 173.286 208.56 176.673 211.978L236.233 272.08C239.62 275.498 244 277.266 248.437 277.383C243.591 279.564 237.635 278.68 233.664 274.673ZM258.306 268.664L268.525 258.352C271.035 255.818 272.378 252.46 272.378 248.924C272.378 245.389 271.035 242.03 268.525 239.497L267.065 238.023L238.16 267.191L239.62 268.664C244.759 273.849 253.167 273.849 258.306 268.664Z" fill="#688236"/>
<path id="Shape_11" fill-rule="evenodd" clip-rule="evenodd" d="M64.3703 160.231C77.9979 173.779 95.9135 180.553 113.888 180.553C131.98 180.553 150.071 173.721 163.875 159.998C177.209 146.742 184.552 129.165 184.61 110.478C184.669 91.7912 177.385 74.2724 164.11 61.0749C136.738 33.8624 92.0954 33.9792 64.6053 61.3085C51.2714 74.5644 43.929 92.1416 43.8702 110.828C43.8115 129.515 51.0952 147.034 64.3703 160.231ZM68.0121 64.6954C80.8761 51.9067 97.6756 45.5415 114.534 45.5415C131.216 45.5415 147.957 51.8483 160.644 64.4618C172.98 76.725 179.794 93.0759 179.735 110.478C179.676 127.88 172.804 144.289 160.41 156.611C147.546 169.399 130.746 175.765 113.888 175.765C97.2057 175.765 80.4649 169.458 67.7772 156.844C55.4419 144.581 48.6281 128.23 48.6868 110.828C48.7456 93.4262 55.6181 77.017 68.0121 64.6954Z" fill="#688236"/>
<path id="Shape_12" fill-rule="evenodd" clip-rule="evenodd" d="M78.0439 148.236C87.5296 157.721 100.138 162.965 113.571 162.965H113.689C127.181 162.965 139.848 157.662 149.393 148.118C158.938 138.573 164.181 125.906 164.24 112.414C164.24 98.9804 159.056 86.3131 149.511 76.7685C140.025 67.2827 127.417 62.0391 113.984 62.0391H113.866C100.374 62.0391 87.7064 67.3417 78.1617 76.8863C68.617 86.431 63.3734 99.0983 63.3145 112.59C63.3145 126.024 68.4992 138.691 78.0439 148.236ZM113.866 66.8098H113.984C126.121 66.8098 137.551 71.5232 146.094 80.1841C154.696 88.786 159.409 100.216 159.409 112.412C159.409 124.608 154.637 136.038 145.976 144.699C137.374 153.301 125.885 158.132 113.689 158.132H113.571C101.434 158.132 90.0042 153.419 81.4611 144.817C72.8591 136.215 68.1457 124.785 68.1457 112.589C68.1457 100.393 72.9181 88.9039 81.5789 80.243C90.1809 71.641 101.67 66.8098 113.866 66.8098Z" fill="#688236"/>
<path id="Oval_9" d="M117.481 133.334C126.942 133.334 134.611 125.25 134.611 115.278C134.611 105.306 126.942 97.2227 117.481 97.2227C108.021 97.2227 100.352 105.306 100.352 115.278C100.352 125.25 108.021 133.334 117.481 133.334Z" fill="#FFE37E"/>
<path id="Shape_13" d="M118.677 131.482C128.477 131.482 136.463 123.557 136.463 113.696C136.463 106.981 132.712 101.113 127.207 98.1484L103.129 122.226C106.094 127.731 111.962 131.482 118.677 131.482Z" fill="#FFCD1D"/>
<path id="Shape_14" fill-rule="evenodd" clip-rule="evenodd" d="M139.247 75.4739C141.156 72.8811 144.684 72.4097 147.172 74.2954C149.659 76.1811 150.18 79.7756 148.271 82.4273L133.693 102.227C136.123 105.527 137.569 109.652 137.569 114.071C137.569 124.973 128.892 133.812 118.19 133.812C115.355 133.812 112.694 133.164 110.322 132.103L94.7612 153.258C93.662 154.79 91.9844 155.556 90.249 155.556C89.092 155.556 87.935 155.143 86.8938 154.377C84.3484 152.433 83.8857 148.838 85.7368 146.304L101.761 124.501C99.9097 121.437 98.8105 117.843 98.8105 114.012C98.8105 103.111 107.488 94.2717 118.19 94.2717C120.446 94.2717 122.586 94.6842 124.553 95.3913L139.247 75.4739ZM103.67 114.011C103.67 122.201 110.207 128.86 118.248 128.86C126.289 128.86 132.825 122.201 132.825 114.011C132.825 105.82 126.289 99.1609 118.248 99.1609C110.207 99.1609 103.67 105.82 103.67 114.011Z" fill="#688236"/>
</g>
</svg>
