<?xml version="1.0" encoding="UTF-8"?>
<svg width="301px" height="290px" viewBox="0 0 301 290" version="1.1" xmlns="http://www.w3.org/2000/svg" xmlns:xlink="http://www.w3.org/1999/xlink">
    <!-- Generator: sketchtool 49.3 (51167) - http://www.bohemiancoding.com/sketch -->
    <title>3353DA70-9FB6-4D04-BD45-D346C389E4C2</title>
    <desc>Created with sketchtool.</desc>
    <defs></defs>
    <g id="Page-1" stroke="none" stroke-width="1" fill="none" fill-rule="evenodd">
        <g id="Startup-network---Заявка-на-инвестирование---large-desktop" transform="translate(-1049.000000, -1383.000000)" fill-rule="nonzero">
            <g id="007-study" transform="translate(1049.000000, 1383.000000)">
                <path d="M282.442899,125.277362 C353.465177,186.836362 202.42525,303.316799 135.400915,237.411075 C47.7401403,151.181483 0,215.383761 0,121.459294 C0,27.5348275 12.9933141,51.5005451 112.236364,9.32558129 C198.721274,-27.4453482 197.251442,51.4418056 282.442899,125.277362 Z" id="Shape" fill="#F1F6EF"></path>
                <path d="M226.434783,44.2579271 L225.086957,29 L209.499055,29 L207.975425,44.3166115 C205.924386,44.7274018 203.873346,45.3142451 201.939509,45.9597728 L193.032136,33.3426408 L179.553875,41.1476574 L185.941399,55.3492664 C184.417769,56.6990062 183.011342,58.1074302 181.663516,59.6332229 L167.364839,52.9432087 L159.570888,66.4406058 L172.345936,75.6540464 C171.701323,77.5906294 171.173913,79.5272125 170.763705,81.5224799 L155,82.9309039 L155,98.5409371 L170.705104,100.125414 C171.115312,102.296735 171.701323,104.350686 172.345936,106.404638 L159.570888,115.618079 L167.364839,129.115476 L181.663516,122.425461 C183.011342,123.951254 184.476371,125.418363 186,126.768102 L179.553875,141.08708 L193.032136,148.892097 L201.99811,136.098912 C203.931947,136.744439 205.924386,137.272598 207.975425,137.683389 L209.499055,153 L225.086957,153 L226.434783,137.742073 C228.544423,137.331283 230.595463,136.803124 232.646503,136.098912 L241.553875,148.481306 L255.032136,140.67629 L248.644612,126.944155 C250.285444,125.477047 251.867675,123.951254 253.332703,122.249408 L266.928166,128.352579 L274.722117,114.855182 L262.533081,106.287269 C263.236295,104.233318 263.822306,102.120681 264.232514,99.8906768 L279,98.4235684 L279,82.8135353 L264.173913,81.5224799 C263.763705,79.4685282 263.236295,77.4732608 262.591682,75.5366777 L274.780718,66.9687648 L266.986767,53.4713677 L260.540643,53.4713677 L253.391304,59.5745386 C251.984877,57.9313772 250.402647,56.4055845 248.761815,54.9384761 L255.090737,41.3237104 L241.612476,33.5186938 L235.166352,33.5186938 L226.434783,44.2579271 Z M218.582231,105.876479 C209.440454,106.580691 201.822306,99.0104117 202.584121,89.8556555 C203.170132,82.6374823 208.971645,76.8277331 216.179584,76.2408897 C225.321361,75.5366777 232.939509,83.1069569 232.177694,92.2617132 C231.650284,99.4212021 225.79017,105.289636 218.582231,105.876479 Z" id="Shape" fill="#3A8E1E"></path>
                <path d="M224.573509,156 L208.954939,156 C207.721893,156 206.664998,155.060109 206.547565,153.826503 L205.197087,140.256831 C204.257624,140.021858 203.376878,139.786885 202.437415,139.493169 L194.45198,150.830601 C193.747383,151.887978 192.338188,152.181694 191.222576,151.535519 L177.717797,143.722678 C176.660901,143.076503 176.19117,141.72541 176.719618,140.60929 L182.473828,127.862022 C181.769231,127.215847 181.12335,126.569672 180.477469,125.864754 L167.79472,131.797814 C166.679108,132.326503 165.269914,131.915301 164.682749,130.79918 L156.873464,117.288251 C156.227583,116.230874 156.521165,114.821038 157.578061,114.11612 L168.969049,105.892077 C168.675467,104.893443 168.381884,103.836066 168.147019,102.778689 L154.172508,101.368852 C152.939463,101.251366 152,100.193989 152,98.9603825 L152,83.3346995 C152,82.0423497 152.939463,81.0437158 154.231224,80.9262295 L168.264452,79.692623 C168.499317,78.8114754 168.734183,77.8715847 168.969049,76.9904372 L157.578061,68.7663934 C156.579882,68.0614754 156.286299,66.6516393 156.873464,65.5942623 L164.682749,52.0833333 C165.32863,50.9672131 166.679108,50.5560109 167.79472,51.0846995 L180.477469,57.0177596 C181.12335,56.3715847 181.769231,55.7254098 182.415112,55.079235 L176.719618,42.5081967 C176.19117,41.3920765 176.660901,40.0409836 177.717797,39.3948087 L191.222576,31.5819672 C192.338188,30.9357923 193.688666,31.2882514 194.45198,32.2868852 L202.319982,43.5068306 C203.259445,43.2131148 204.198908,42.9781421 205.197087,42.7431694 L206.547565,29.1734973 C206.664998,27.9398907 207.721893,27 208.954939,27 L224.573509,27 C225.865271,27 226.86345,27.9398907 226.980883,29.2322404 L227.802913,38.5136612 L232.676377,32.5806011 C233.146108,31.9931694 233.850706,31.6994536 234.555303,31.6994536 L241.01411,31.6994536 C241.425125,31.6994536 241.83614,31.8169399 242.247155,32.0519126 L255.751934,39.8647541 C256.867547,40.510929 257.278562,41.8620219 256.750114,42.9781421 L251.172053,54.9617486 C251.817934,55.5491803 252.405098,56.1953552 253.050979,56.7827869 L258.394174,52.2008197 C258.863905,51.8483607 259.392353,51.613388 259.979518,51.613388 L266.438325,51.613388 C267.319071,51.613388 268.141102,52.0833333 268.552117,52.8469945 L276.361402,66.3579235 C277.007283,67.4740437 276.654984,68.8251366 275.656805,69.5887978 L264.911698,77.1079235 C265.20528,77.989071 265.440146,78.9289617 265.675011,79.8688525 L278.768776,81.0437158 C280.001821,81.1612022 281,82.2185792 281,83.4521858 L281,99.0778689 C281,100.311475 280.060537,101.368852 278.827492,101.486339 L265.851161,102.778689 C265.616295,103.836066 265.322713,104.893443 265.029131,105.95082 L275.774238,113.469945 C276.831133,114.174863 277.124716,115.584699 276.478835,116.70082 L268.669549,130.211749 C268.023669,131.269126 266.673191,131.739071 265.557579,131.210383 L253.579426,125.806011 C252.816113,126.628415 252.052799,127.392077 251.230769,128.155738 L256.867547,140.256831 C257.395995,141.372951 256.98498,142.782787 255.869367,143.370219 L242.364588,151.18306 C241.307692,151.829235 239.898498,151.535519 239.193901,150.478142 L231.325899,139.551913 C230.32772,139.845628 229.32954,140.080601 228.331361,140.315574 L227.157032,153.76776 C226.86345,155.060109 225.806554,156 224.573509,156 Z M211.186163,151.124317 L222.342285,151.124317 L223.516614,138.083333 C223.634046,137.025956 224.39736,136.086066 225.454256,135.909836 C227.450614,135.498634 229.446973,135.028689 231.325899,134.382514 C232.324078,134.030055 233.43969,134.382514 234.085571,135.263661 L241.718707,145.837432 L251.406919,140.256831 L245.94629,128.508197 C245.476559,127.509563 245.711425,126.334699 246.533455,125.629781 C248.118798,124.278689 249.586709,122.751366 250.995904,121.165301 C251.700501,120.342896 252.874829,120.107923 253.814292,120.519126 L265.440146,125.747268 L271.018207,116.054645 L260.625398,108.770492 C259.744652,108.124317 259.392353,107.008197 259.744652,106.009563 C260.390533,104.071038 260.91898,102.015027 261.329995,99.9590164 C261.506145,98.9016393 262.386891,98.079235 263.502503,98.0204918 L276.06782,96.7281421 L276.06782,85.5669399 L263.443787,84.4508197 C262.386891,84.3333333 261.506145,83.5696721 261.271279,82.5122951 C260.860264,80.5737705 260.390533,78.6939891 259.744652,76.8729508 C259.392353,75.8743169 259.744652,74.6994536 260.625398,74.1120219 L271.018207,66.8278689 L265.029131,56.489071 L260.860264,56.489071 L254.401457,62.010929 C253.403277,62.8920765 251.87665,62.7745902 250.995904,61.7759563 C249.645426,60.2486339 248.177515,58.7213115 246.592171,57.3702186 C245.770141,56.6653005 245.535275,55.4904372 246.005007,54.4918033 L251.406919,42.9193989 L240.368229,36.5751366 L235.729631,36.5751366 L227.802913,46.2090164 C227.157032,46.9726776 226.158853,47.2663934 225.21939,46.9726776 C224.279927,46.6789617 223.57533,45.8565574 223.516614,44.8579235 L222.342285,31.8169399 L211.186163,31.8169399 L209.835685,44.9754098 C209.718252,46.0327869 208.954939,46.9139344 207.898043,47.1489071 C205.960401,47.5601093 204.022758,48.0887978 202.143832,48.7349727 C201.145653,49.0874317 199.971325,48.7349727 199.38416,47.8538251 L191.809741,36.9863388 L182.121529,42.5669399 L187.582157,54.726776 C187.993173,55.7254098 187.758307,56.8415301 186.994993,57.5464481 C185.585799,58.8387978 184.176604,60.1898907 182.943559,61.5997268 C182.238962,62.4221311 181.064634,62.6571038 180.066454,62.1871585 L167.736004,56.4303279 L162.157943,66.1229508 L173.196632,74.0532787 C174.077378,74.6994536 174.429677,75.8155738 174.077378,76.8142077 C173.431497,78.6352459 172.961766,80.5150273 172.550751,82.3948087 C172.315885,83.4521858 171.435139,84.2745902 170.378243,84.3333333 L156.814747,85.5081967 L156.814747,96.6693989 L170.378243,98.0204918 C171.435139,98.1379781 172.315885,98.9016393 172.550751,99.9590164 C172.961766,102.015027 173.490214,104.012295 174.136095,105.95082 C174.488393,106.949454 174.136095,108.065574 173.255348,108.711749 L162.216659,116.642077 L167.79472,126.334699 L180.125171,120.577869 C181.12335,120.107923 182.297679,120.342896 183.002276,121.165301 C184.294037,122.63388 185.644515,124.043716 187.112426,125.277322 C187.934456,125.98224 188.169322,127.157104 187.69959,128.096995 L182.121529,140.43306 L191.809741,146.013661 L199.501593,135.028689 C200.147474,134.147541 201.263086,133.795082 202.261265,134.147541 C204.081475,134.793716 206.019117,135.263661 207.898043,135.674863 C208.954939,135.909836 209.718252,136.73224 209.835685,137.848361 L211.186163,151.124317 Z M216.881657,108.829235 C212.301775,108.829235 207.898043,107.008197 204.609923,103.777322 C201.02822,100.193989 199.208011,95.2008197 199.619026,90.1489071 C200.264907,81.7486339 207.076013,74.9344262 215.472462,74.2882514 C220.580792,73.8770492 225.512972,75.6980874 229.094675,79.2814208 C232.676377,82.8647541 234.496586,87.8579235 234.085571,92.9098361 C233.43969,101.310109 226.628584,108.124317 218.232135,108.770492 C217.82112,108.829235 217.351388,108.829235 216.881657,108.829235 Z M216.82294,79.0464481 C216.470642,79.0464481 216.17706,79.0464481 215.824761,79.1051913 C209.776969,79.5751366 204.903505,84.5095628 204.433773,90.5013661 C204.140191,94.1434426 205.431953,97.726776 208.015476,100.311475 C210.598999,102.896175 214.180701,104.188525 217.82112,103.894809 C223.868912,103.424863 228.742376,98.4904372 229.212107,92.4986339 C229.50569,88.8565574 228.213928,85.273224 225.630405,82.6885246 C223.340464,80.3387978 220.169777,79.0464481 216.82294,79.0464481 Z" id="Shape" fill="#688236"></path>
                <path d="M272,98.5666982 L272,82.9640492 L257.152863,81.6736045 C256.742073,79.6206244 256.213914,77.6263009 255.568386,75.6906339 L267.774728,67.1267739 L259.969711,53.6357616 L246.354946,59.7360454 C244.946522,58.0936613 243.362044,56.5685904 241.718883,55.102176 L248.056791,41.4938505 L234.559394,33.692526 L225.756744,45.8930937 C223.702792,45.1892148 221.590156,44.6613056 219.47752,44.2507096 L218.12778,29 L202.576432,29 L201.050639,44.3093661 C198.996687,44.7199622 196.942735,45.3065279 195.006152,45.9517502 L186.086133,33.3992431 L172.588736,41.2005676 L178.985329,55.3954588 C177.459536,56.7445601 176.051112,58.1523179 174.701372,59.6773888 L160.382395,52.9905393 L152.577378,66.4815516 L165.370563,75.6906339 C164.725035,77.6263009 164.196876,79.5619678 163.786086,81.5562914 L148,82.9640492 L148,98.5666982 L163.727402,100.150426 C164.138192,102.320719 164.725035,104.373699 165.370563,106.426679 L152.577378,115.635762 L160.382395,129.126774 L174.701372,122.439924 C176.051112,123.964995 177.518221,125.43141 179.044013,126.780511 L172.588736,141.092715 L186.086133,148.89404 L195.064837,136.106906 C197.00142,136.752129 198.996687,137.280038 201.050639,137.690634 L202.576432,153 L218.186465,153 L219.536204,137.74929 C221.648841,137.338694 223.702792,136.810785 225.756744,136.106906 L234.676763,148.483444 L248.17416,140.682119 L241.777567,126.956481 C243.420729,125.490066 245.005206,123.964995 246.472314,122.263955 L260.08708,128.364238 L267.892097,114.873226 L255.685755,106.309366 C256.389967,104.256386 256.97681,102.144749 257.387601,99.9157994 L272,98.5666982 Z M211.672504,105.89877 C202.517747,106.602649 194.888784,99.0359508 195.65168,89.8855251 C196.238523,82.6707663 202.048273,76.8637654 209.266446,76.2771996 C218.421202,75.5733207 226.050166,83.1400189 225.287269,92.2904447 C224.75911,99.4465468 218.890677,105.312204 211.672504,105.89877 Z" id="Shape" fill="#FFFFFF"></path>
                <path d="M273,99.1917404 L273,83.4985251 L258.056113,82.20059 C257.642646,80.1356932 257.111045,78.1297935 256.461311,76.1828909 L268.747194,67.5693215 L260.891317,54 L247.187832,60.1356932 C246.597165,59.4277286 245.947431,58.7787611 245.297696,58.0707965 L222.025399,81.4336283 C224.801536,84.3834808 226.396338,88.4542773 226.041937,92.879056 C225.45127,100.135693 219.603662,105.976401 212.338452,106.566372 C207.908447,106.920354 203.832841,105.327434 200.879504,102.554572 L177.607206,125.858407 C178.197874,126.448378 178.847608,127.038348 179.497342,127.628319 L173,142.023599 L186.585351,149.870206 L195.622563,137.00885 C197.571766,137.657817 199.580035,138.188791 201.647372,138.60177 L203.183107,154 L218.894861,154 L220.253396,138.660767 C222.379799,138.247788 224.447135,137.716814 226.514471,137.00885 L235.492617,149.457227 L249.077968,141.610619 L242.639693,127.80531 C244.293562,126.330383 245.888364,124.79646 247.365032,123.085546 L261.068517,129.221239 L268.924395,115.651917 L256.638512,107.038348 C257.347312,104.973451 257.93798,102.849558 258.351447,100.60767 L273,99.1917404 Z" id="Shape" fill="#D5D5D5"></path>
                <g id="Group" transform="translate(146.000000, 27.000000)">
                    <path d="M72.9454545,128.777182 L57.2848485,128.777182 C56.0484848,128.777182 54.9887446,127.839 54.8709957,126.607636 L53.5168831,113.062636 C52.5748918,112.828091 51.6917749,112.593545 50.7497835,112.300364 L42.7428571,123.617182 C42.0363636,124.672636 40.6233766,124.965818 39.5047619,124.320818 L25.9636364,116.522182 C24.9038961,115.877182 24.4329004,114.528545 24.9627706,113.414455 L30.7324675,100.690364 C30.025974,100.045364 29.378355,99.4003636 28.7307359,98.6967273 L16.0138528,104.619 C14.8952381,105.146727 13.4822511,104.736273 12.8935065,103.622182 L5.06320346,90.1358182 C4.41558442,89.0803636 4.70995671,87.6730909 5.76969697,86.9694545 L17.191342,78.7603636 C16.8969697,77.7635455 16.6025974,76.7080909 16.3670996,75.6526364 L2.35497835,74.2453636 C1.11861472,74.1280909 0.176623377,73.0726364 0.176623377,71.8412727 L0.176623377,56.244 C0.176623377,54.954 1.11861472,53.9571818 2.41385281,53.8399091 L16.4848485,52.6085455 C16.7203463,51.729 16.9558442,50.7908182 17.191342,49.9112727 L5.76969697,41.7021818 C4.76883117,40.9985455 4.47445887,39.5912727 5.06320346,38.5358182 L12.8935065,25.0494545 C13.5411255,23.9353636 14.8952381,23.5249091 16.0138528,24.0526364 L28.7307359,29.9749091 C29.378355,29.3299091 30.025974,28.6849091 30.6735931,28.0399091 L24.9627706,15.4917273 C24.4329004,14.3776364 24.9038961,13.029 25.9636364,12.384 L39.5047619,4.58536364 C40.6233766,3.94036364 41.9774892,4.29218182 42.7428571,5.289 L50.6320346,16.4885455 C51.574026,16.1953636 52.5160173,15.9608182 53.5168831,15.7262727 L54.8709957,2.18127273 C54.9887446,0.949909091 56.0484848,0.0117272727 57.2848485,0.0117272727 L72.9454545,0.0117272727 C74.2406926,0.0117272727 75.2415584,0.949909091 75.3593074,2.23990909 L76.5367965,15.6676364 C77.5965368,15.9021818 78.5974026,16.1953636 79.6571429,16.4885455 L87.4285714,5.69945455 C88.1350649,4.70263636 89.5480519,4.40945455 90.6077922,4.99581818 L104.148918,12.7944545 C105.267532,13.4394545 105.679654,14.7880909 105.149784,15.9021818 L99.55671,27.864 C100.322078,28.5676364 101.087446,29.3299091 101.852814,30.1508182 L113.863203,24.7562727 C114.981818,24.2285455 116.335931,24.6976364 116.98355,25.7530909 L124.813853,39.2394545 C125.461472,40.3535455 125.108225,41.7021818 124.107359,42.4644545 L113.333333,49.9699091 C113.627706,50.8494545 113.863203,51.7876364 114.098701,52.7258182 L127.227706,53.8985455 C128.464069,54.0158182 129.464935,55.0712727 129.464935,56.3026364 L129.464935,71.8999091 C129.464935,73.1312727 128.522944,74.1867273 127.28658,74.304 L114.275325,75.594 C114.039827,76.6494545 113.745455,77.7049091 113.451082,78.7603636 L124.225108,86.2658182 C125.284848,86.9694545 125.579221,88.3767273 124.931602,89.4908182 L117.101299,102.977182 C116.45368,104.032636 115.099567,104.501727 113.980952,103.974 L101.970563,98.5794545 C101.205195,99.4003636 100.439827,100.162636 99.6155844,100.924909 L105.267532,113.004 C105.797403,114.118091 105.385281,115.525364 104.266667,116.111727 L90.7255411,123.910364 C89.6658009,124.555364 88.2528139,124.262182 87.5463203,123.206727 L79.6571429,112.300364 C78.6562771,112.593545 77.6554113,112.828091 76.6545455,113.062636 L75.4770563,126.490364 C75.2415584,127.839 74.1818182,128.777182 72.9454545,128.777182 Z M59.5220779,123.910364 L70.7082251,123.910364 L71.8857143,110.893091 C72.0034632,109.837636 72.7688312,108.899455 73.8285714,108.723545 C75.830303,108.313091 77.8320346,107.844 79.7160173,107.199 C80.7168831,106.847182 81.8354978,107.199 82.4831169,108.078545 L90.1367965,118.633091 L99.8510823,113.062636 L94.3757576,101.335364 C93.9047619,100.338545 94.1402597,99.1658182 94.9645022,98.4621818 C96.5541126,97.1135455 98.025974,95.589 99.438961,94.0058182 C100.145455,93.1849091 101.322944,92.9503636 102.264935,93.3608182 L113.922078,98.5794545 L119.515152,88.9044545 L109.094372,81.6335455 C108.211255,80.9885455 107.858009,79.8744545 108.211255,78.8776364 C108.858874,76.9426364 109.388745,74.8903636 109.800866,72.8380909 C109.977489,71.7826364 110.860606,70.9617273 111.979221,70.9030909 L124.578355,69.6130909 L124.578355,58.4721818 L111.920346,57.3580909 C110.860606,57.2408182 109.977489,56.4785455 109.741991,55.4230909 C109.32987,53.4880909 108.858874,51.6117273 108.211255,49.794 C107.858009,48.7971818 108.211255,47.6244545 109.094372,47.0380909 L119.515152,39.7671818 L113.922078,30.0921818 L102.264935,35.3108182 C101.264069,35.7799091 100.145455,35.4867273 99.438961,34.6658182 C98.0848485,33.1412727 96.612987,31.6167273 95.0233766,30.2680909 C94.1991342,29.5644545 93.9636364,28.3917273 94.434632,27.3949091 L99.8510823,15.8435455 L90.1367965,10.2730909 L82.6008658,20.7103636 C81.9532468,21.5899091 80.834632,21.9417273 79.8337662,21.5899091 C77.8909091,20.9449091 75.8891775,20.4171818 73.8285714,20.0067273 C72.7688312,19.8308182 71.9445887,18.8926364 71.8268398,17.8371818 L70.6493506,4.81990909 L59.4632035,4.81990909 L58.1090909,17.9544545 C57.991342,19.0099091 57.225974,19.8894545 56.1662338,20.124 C54.2233766,20.5344545 52.2805195,21.0621818 50.3965368,21.7071818 C49.395671,22.059 48.2181818,21.7071818 47.6294372,20.8276364 L40.034632,9.97990909 L30.3203463,15.5503636 L35.795671,27.6880909 C36.2077922,28.6849091 35.9722944,29.799 35.2069264,30.5026364 C33.7939394,31.7926364 32.3809524,33.1412727 31.1445887,34.5485455 C30.4380952,35.3694545 29.2606061,35.604 28.2597403,35.1349091 L15.8961039,29.3885455 L10.3030303,39.0635455 L21.3714286,46.9794545 C22.2545455,47.6244545 22.6077922,48.7385455 22.2545455,49.7353636 C21.6069264,51.5530909 21.1359307,53.4294545 20.7238095,55.3058182 C20.4883117,56.3612727 19.6051948,57.1821818 18.5454545,57.2408182 L4.94545455,58.4135455 L4.94545455,69.5544545 L18.5454545,70.9030909 C19.6051948,71.0203636 20.4883117,71.7826364 20.7238095,72.8380909 C21.1359307,74.8903636 21.6658009,76.884 22.3134199,78.819 C22.6666667,79.8158182 22.3134199,80.9299091 21.430303,81.5749091 L10.3619048,89.4908182 L15.9549784,99.1658182 L28.3186147,93.4194545 C29.3194805,92.9503636 30.4969697,93.1849091 31.2034632,94.0058182 C32.4987013,95.4717273 33.8528139,96.879 35.3246753,98.1103636 C36.1489177,98.814 36.3844156,99.9867273 35.9134199,100.924909 L30.3203463,113.238545 L40.034632,118.809 L47.7471861,107.844 C48.3948052,106.964455 49.5134199,106.612636 50.5142857,106.964455 C52.3393939,107.609455 54.2822511,108.078545 56.1662338,108.489 C57.225974,108.723545 57.991342,109.544455 58.1090909,110.658545 L59.5220779,123.910364 Z M65.2329004,81.6921818 C60.6406926,81.6921818 56.2251082,79.8744545 52.9281385,76.6494545 C49.3367965,73.0726364 47.5116883,68.0885455 47.9238095,63.0458182 C48.5714286,54.6608182 55.4008658,47.859 63.8199134,47.214 C68.9419913,46.8035455 73.8874459,48.6212727 77.4787879,52.1980909 C81.0701299,55.7749091 82.8952381,60.759 82.4831169,65.8017273 C81.8354978,74.1867273 75.0060606,80.9885455 66.587013,81.6335455 C66.1748918,81.6921818 65.7038961,81.6921818 65.2329004,81.6921818 Z M65.2329004,51.9635455 C64.8796537,51.9635455 64.5852814,51.9635455 64.2320346,52.0221818 C58.1679654,52.4912727 53.2813853,57.4167273 52.8103896,63.3976364 C52.5160173,67.0330909 53.8112554,70.6099091 56.4017316,73.1899091 C58.9922078,75.7699091 62.5835498,77.0599091 66.2337662,76.7667273 C72.2978355,76.2976364 77.1844156,71.3721818 77.6554113,65.3912727 C77.9497835,61.7558182 76.6545455,58.179 74.0640693,55.599 C71.7090909,53.2535455 68.5298701,51.9635455 65.2329004,51.9635455 Z" id="Shape" fill="#688236"></path>
                    <path d="M128.170563,42.9335455 L121.694372,42.9335455 C120.34026,42.9335455 119.280519,41.8194545 119.280519,40.5294545 C119.280519,39.2394545 120.399134,38.1253636 121.694372,38.1253636 L128.170563,38.1253636 C129.524675,38.1253636 130.584416,39.2394545 130.584416,40.5294545 C130.584416,41.8194545 129.524675,42.9335455 128.170563,42.9335455 Z" id="Shape" fill="#688236"></path>
                    <path d="M110.448485,51.4944545 C109.153247,51.4944545 108.034632,50.4976364 108.034632,49.149 C107.975758,47.8003636 109.035498,46.6862727 110.38961,46.6276364 L117.277922,46.3344545 C118.632035,46.2758182 119.750649,47.3312727 119.809524,48.6799091 C119.868398,50.0285455 118.808658,51.1426364 117.454545,51.2012727 L110.566234,51.4944545 C110.507359,51.4944545 110.507359,51.4944545 110.448485,51.4944545 Z" id="Shape" fill="#688236"></path>
                    <path d="M133.409524,58.7653636 L126.933333,58.7653636 C125.579221,58.7653636 124.519481,57.6512727 124.519481,56.3612727 C124.519481,55.0126364 125.638095,53.9571818 126.933333,53.9571818 L133.409524,53.9571818 C134.763636,53.9571818 135.823377,55.0712727 135.823377,56.3612727 C135.882251,57.6512727 134.763636,58.7653636 133.409524,58.7653636 Z" id="Shape" fill="#688236"></path>
                    <path d="M133.409524,74.304 L126.933333,74.304 C125.579221,74.304 124.519481,73.1899091 124.519481,71.8999091 C124.519481,70.5512727 125.638095,69.4958182 126.933333,69.4958182 L133.409524,69.4958182 C134.763636,69.4958182 135.823377,70.6099091 135.823377,71.8999091 C135.882251,73.2485455 134.763636,74.304 133.409524,74.304 Z" id="Shape" fill="#4B31AA"></path>
                    <path d="M129.170563,90.7221818 C129.111688,90.7221818 129.111688,90.7221818 129.052814,90.7221818 L121.87013,90.429 C120.516017,90.3703636 119.456277,89.2562727 119.515152,87.9076364 C119.574026,86.559 120.692641,85.5035455 122.046753,85.5621818 L129.229437,85.8553636 C130.58355,85.914 131.64329,87.0280909 131.584416,88.3767273 C131.584416,89.6667273 130.465801,90.7221818 129.170563,90.7221818 Z" id="Shape" fill="#4B31AA"></path>
                    <path d="M116.924675,82.1612727 L110.448485,82.1612727 C109.094372,82.1612727 108.034632,81.0471818 108.034632,79.7571818 C108.034632,78.4085455 109.153247,77.3530909 110.448485,77.3530909 L116.924675,77.3530909 C118.278788,77.3530909 119.338528,78.4671818 119.338528,79.7571818 C119.397403,81.1058182 118.278788,82.1612727 116.924675,82.1612727 Z" id="Shape" fill="#4B31AA"></path>
                    <path d="M121.34026,104.208545 L114.864069,104.208545 C113.509957,104.208545 112.450216,103.094455 112.450216,101.804455 C112.450216,100.455818 113.568831,99.4003636 114.864069,99.4003636 L121.34026,99.4003636 C122.694372,99.4003636 123.754113,100.514455 123.754113,101.804455 C123.812987,103.094455 122.694372,104.208545 121.34026,104.208545 Z" id="Shape" fill="#4B31AA"></path>
                    <path d="M103.030303,102.742636 L96.5541126,102.742636 C95.2,102.742636 94.1402597,101.628545 94.1402597,100.338545 C94.1402597,99.0485455 95.2588745,97.9344545 96.5541126,97.9344545 L103.030303,97.9344545 C104.384416,97.9344545 105.444156,99.0485455 105.444156,100.338545 C105.444156,101.628545 104.384416,102.742636 103.030303,102.742636 Z" id="Shape" fill="#4B31AA"></path>
                    <path d="M109.447619,116.463545 L102.971429,116.463545 C101.617316,116.463545 100.557576,115.349455 100.557576,114.059455 C100.557576,112.710818 101.67619,111.655364 102.971429,111.655364 L109.447619,111.655364 C110.801732,111.655364 111.861472,112.769455 111.861472,114.059455 C111.861472,115.408091 110.801732,116.463545 109.447619,116.463545 Z" id="Shape" fill="#4B31AA"></path>
                    <path d="M95.9064935,124.262182 L89.430303,124.262182 C88.0761905,124.262182 87.0164502,123.148091 87.0164502,121.858091 C87.0164502,120.568091 88.1350649,119.454 89.430303,119.454 L95.9064935,119.454 C97.2606061,119.454 98.3203463,120.568091 98.3203463,121.858091 C98.3203463,123.148091 97.2606061,124.262182 95.9064935,124.262182 Z" id="Shape" fill="#4B31AA"></path>
                    <path d="M47.217316,124.672636 L40.6233766,124.672636 C39.2692641,124.672636 38.2095238,123.558545 38.2095238,122.268545 C38.2095238,120.919909 39.3281385,119.864455 40.6233766,119.864455 L47.217316,119.864455 C48.5714286,119.864455 49.6311688,120.978545 49.6311688,122.268545 C49.6900433,123.558545 48.5714286,124.672636 47.217316,124.672636 Z" id="Shape" fill="#4B31AA"></path>
                    <path d="M47.217316,9.159 L40.7411255,9.159 C39.387013,9.159 38.3272727,8.04490909 38.3272727,6.75490909 C38.3272727,5.46490909 39.4458874,4.35081818 40.7411255,4.35081818 L47.217316,4.35081818 C48.5714286,4.35081818 49.6311688,5.46490909 49.6311688,6.75490909 C49.6311688,8.04490909 48.5714286,9.159 47.217316,9.159 Z" id="Shape" fill="#688236"></path>
                    <path d="M21.430303,28.7435455 L14.9541126,28.7435455 C13.6,28.7435455 12.5402597,27.6294545 12.5402597,26.3394545 C12.5402597,25.0494545 13.6588745,23.9353636 14.9541126,23.9353636 L21.430303,23.9353636 C22.7844156,23.9353636 23.8441558,25.0494545 23.8441558,26.3394545 C23.9030303,27.6880909 22.7844156,28.7435455 21.430303,28.7435455 Z" id="Shape" fill="#688236"></path>
                    <path d="M21.430303,104.912182 L14.9541126,104.912182 C13.6,104.912182 12.5402597,103.798091 12.5402597,102.508091 C12.5402597,101.159455 13.6588745,100.104 14.9541126,100.104 L21.430303,100.104 C22.7844156,100.104 23.8441558,101.218091 23.8441558,102.508091 C23.9030303,103.798091 22.7844156,104.912182 21.430303,104.912182 Z" id="Shape" fill="#4B31AA"></path>
                    <path d="M103.089177,30.9717273 L96.612987,30.9717273 C95.2588745,30.9717273 94.1991342,29.8576364 94.1991342,28.5676364 C94.1991342,27.2776364 95.3177489,26.1635455 96.612987,26.1635455 L103.089177,26.1635455 C104.44329,26.1635455 105.50303,27.2776364 105.50303,28.5676364 C105.50303,29.8576364 104.44329,30.9717273 103.089177,30.9717273 Z" id="Shape" fill="#688236"></path>
                </g>
                <path d="M211.5,119 C195.798337,119 183,106.426195 183,91 C183,75.5738046 195.798337,63 211.5,63 C227.201663,63 240,75.5738046 240,91 C240,106.426195 227.201663,119 211.5,119 Z M211.5,75.6902287 C202.908524,75.6902287 195.91684,82.5592516 195.91684,91 C195.91684,99.4407484 202.908524,106.309771 211.5,106.309771 C220.091476,106.309771 227.08316,99.4407484 227.08316,91 C227.08316,82.5592516 220.091476,75.6902287 211.5,75.6902287 Z" id="Shape" fill="#F2C731"></path>
                <path d="M165,264 C165,251.995988 155.279703,242.228017 143.20297,242.228017 L52.4212871,242.228017 C48.8866337,242.228017 46,239.344701 46,235.814109 L46,94.4139084 C46,90.8833166 48.8866337,88 52.4212871,88 L143.20297,88 C155.220792,88 165,97.7091274 165,109.771983 L165,264 Z" id="Shape" fill="#FFFFFF"></path>
                <g id="Group" transform="translate(71.000000, 116.000000)" fill="#79A1E8">
                    <path d="M67.9825,29.044 L2.485,29.044 C1.12416667,29.044 0.0591666667,27.9251111 0.0591666667,26.6295556 C0.0591666667,25.2751111 1.18333333,24.2151111 2.485,24.2151111 L67.9825,24.2151111 C69.3433333,24.2151111 70.4083333,25.334 70.4083333,26.6295556 C70.4675,27.984 69.3433333,29.044 67.9825,29.044 Z" id="Shape"></path>
                    <path d="M67.9825,40.9395556 L2.485,40.9395556 C1.12416667,40.9395556 0.0591666667,39.8206667 0.0591666667,38.5251111 C0.0591666667,37.1706667 1.18333333,36.1106667 2.485,36.1106667 L67.9825,36.1106667 C69.3433333,36.1106667 70.4083333,37.2295556 70.4083333,38.5251111 C70.4675,39.8795556 69.3433333,40.9395556 67.9825,40.9395556 Z" id="Shape"></path>
                    <path d="M67.9825,52.8351111 L2.485,52.8351111 C1.12416667,52.8351111 0.0591666667,51.7162222 0.0591666667,50.4206667 C0.0591666667,49.0662222 1.18333333,48.0062222 2.485,48.0062222 L67.9825,48.0062222 C69.3433333,48.0062222 70.4083333,49.1251111 70.4083333,50.4206667 C70.4675,51.7751111 69.3433333,52.8351111 67.9825,52.8351111 Z" id="Shape"></path>
                    <path d="M67.9825,5.31177778 L2.485,5.31177778 C1.12416667,5.31177778 0.0591666667,4.19288889 0.0591666667,2.89733333 C0.0591666667,1.54288889 1.18333333,0.482888889 2.485,0.482888889 L67.9825,0.482888889 C69.3433333,0.482888889 70.4083333,1.60177778 70.4083333,2.89733333 C70.4675,4.19288889 69.3433333,5.31177778 67.9825,5.31177778 Z" id="Shape"></path>
                    <path d="M67.9825,17.2073333 L2.485,17.2073333 C1.12416667,17.2073333 0.0591666667,16.0884444 0.0591666667,14.7928889 C0.0591666667,13.4384444 1.18333333,12.3784444 2.485,12.3784444 L67.9825,12.3784444 C69.3433333,12.3784444 70.4083333,13.4973333 70.4083333,14.7928889 C70.4675,16.0884444 69.3433333,17.2073333 67.9825,17.2073333 Z" id="Shape"></path>
                </g>
                <path d="M165,264 C165,251.995988 174.720297,242.228017 186.79703,242.228017 L277.578713,242.228017 C281.113366,242.228017 284,239.344701 284,235.814109 L284,94.4139084 C284,90.8833166 281.113366,88 277.578713,88 L186.79703,88 C174.779208,88 165,97.7091274 165,109.771983 L165,264 Z" id="Shape" fill="#FFFFFF"></path>
                <path d="M281.879208,90 L165,206.508944 L165,264 C165,252.02025 174.720297,242.272022 186.79703,242.272022 L277.578713,242.272022 C281.113366,242.272022 284,239.394533 284,235.871077 L284,94.6979413 C284,92.8187648 283.175248,91.1157611 281.879208,90 Z" id="Shape" fill="#D5D5D5"></path>
                <path d="M277.304325,85 L186.790235,85 C177.274802,85 168.992851,90.5664062 165.057456,98.5351562 C161.12206,90.5078125 152.898846,85 143.324676,85 L52.8105863,85 C47.9353952,85 44,88.9257812 44,93.7890625 L44,234.589844 C44,239.453125 47.9353952,243.378906 52.8105863,243.378906 L143.324676,243.378906 C153.956117,243.378906 162.590491,251.992187 162.590491,262.597656 C162.590491,263.945312 163.706499,265 164.998718,265 C166.349675,265 167.406945,263.886719 167.406945,262.597656 C167.406945,251.992187 176.04132,243.378906 186.672761,243.378906 L277.18685,243.378906 C282.062041,243.378906 285.997437,239.453125 285.997437,234.589844 L285.997437,93.7890625 C286.114911,88.9257812 282.179516,85 277.304325,85 Z M162.590491,248.183594 C158.185198,242.382813 151.195466,238.574219 143.324676,238.574219 L52.8105863,238.574219 C50.6373083,238.574219 48.8751911,236.816406 48.8751911,234.648438 L48.8751911,93.7890625 C48.8751911,91.6210938 50.6373083,89.8632813 52.8105863,89.8632813 L143.324676,89.8632813 C153.956117,89.8632813 162.590491,98.4765625 162.590491,109.082031 L162.590491,248.183594 Z M281.23972,234.648437 C281.23972,236.816406 279.477603,238.574219 277.304325,238.574219 L186.790235,238.574219 C178.919445,238.574219 171.929713,242.324219 167.52442,248.183594 L167.52442,109.082031 C167.52442,98.4765625 176.158794,89.8632812 186.790235,89.8632812 L277.304325,89.8632812 C279.477603,89.8632812 281.23972,91.6210937 281.23972,93.7890625 L281.23972,234.648437 Z" id="Shape" fill="#688236"></path>
                <g id="Group" transform="translate(189.000000, 116.000000)">
                    <path d="M67.9825,29.044 L2.485,29.044 C1.12416667,29.044 0.0591666667,27.9251111 0.0591666667,26.6295556 C0.0591666667,25.2751111 1.18333333,24.2151111 2.485,24.2151111 L67.9825,24.2151111 C69.3433333,24.2151111 70.4083333,25.334 70.4083333,26.6295556 C70.4675,27.984 69.3433333,29.044 67.9825,29.044 Z" id="Shape" fill="#688236"></path>
                    <path d="M67.9825,40.9395556 L2.485,40.9395556 C1.12416667,40.9395556 0.0591666667,39.8206667 0.0591666667,38.5251111 C0.0591666667,37.1706667 1.18333333,36.1106667 2.485,36.1106667 L67.9825,36.1106667 C69.3433333,36.1106667 70.4083333,37.2295556 70.4083333,38.5251111 C70.4675,39.8795556 69.3433333,40.9395556 67.9825,40.9395556 Z" id="Shape" fill="#688236"></path>
                    <path d="M67.9825,52.8351111 L2.485,52.8351111 C1.12416667,52.8351111 0.0591666667,51.7162222 0.0591666667,50.4206667 C0.0591666667,49.0662222 1.18333333,48.0062222 2.485,48.0062222 L67.9825,48.0062222 C69.3433333,48.0062222 70.4083333,49.1251111 70.4083333,50.4206667 C70.4675,51.7751111 69.3433333,52.8351111 67.9825,52.8351111 Z" id="Shape" fill="#688236"></path>
                    <path d="M67.9825,5.31177778 L2.485,5.31177778 C1.12416667,5.31177778 0.0591666667,4.19288889 0.0591666667,2.89733333 C0.0591666667,1.54288889 1.18333333,0.482888889 2.485,0.482888889 L67.9825,0.482888889 C69.3433333,0.482888889 70.4083333,1.60177778 70.4083333,2.89733333 C70.4675,4.19288889 69.3433333,5.31177778 67.9825,5.31177778 Z" id="Shape" fill="#FFCD1D"></path>
                    <path d="M67.9825,17.2073333 L2.485,17.2073333 C1.12416667,17.2073333 0.0591666667,16.0884444 0.0591666667,14.7928889 C0.0591666667,13.4384444 1.18333333,12.3784444 2.485,12.3784444 L67.9825,12.3784444 C69.3433333,12.3784444 70.4083333,13.4973333 70.4083333,14.7928889 C70.4675,16.0884444 69.3433333,17.2073333 67.9825,17.2073333 Z" id="Shape" fill="#688236"></path>
                </g>
                <rect id="Rectangle-path" fill="#FFE37E" transform="translate(133.000000, 198.000000) rotate(-45.000000) translate(-133.000000, -198.000000) " x="122" y="187" width="22" height="22"></rect>
                <path d="M207.975985,273.955118 L198.955118,282.975985 C193.589765,288.341338 184.863697,288.341338 179.498344,282.975985 L127.024015,230.501656 C121.658662,225.136303 121.658662,216.410235 127.024015,211.044882 L136.044882,202.024015 C141.410235,196.658662 150.136303,196.658662 155.501656,202.024015 L207.975985,254.498344 C213.341338,259.863697 213.341338,268.589765 207.975985,273.955118 Z" id="Shape" fill="#8FAD55"></path>
                <path d="M189.775805,288 C185.640691,288 181.446504,286.421995 178.315632,283.32443 L125.740613,231.30872 C119.419796,225.055145 119.419796,214.885782 125.740613,208.632207 L134.77879,199.690181 C141.099607,193.436606 151.378319,193.436606 157.699136,199.690181 L210.274156,251.705892 C213.345954,254.745012 215,258.77769 215,263.044148 C215,267.310605 213.286881,271.343284 210.274156,274.382404 L201.235978,283.32443 C198.105106,286.421995 193.969992,288 189.775805,288 Z M146.298036,199.865515 C143.403456,199.865515 140.508877,200.975962 138.323174,203.138413 L129.284996,212.08044 C124.854517,216.463786 124.854517,223.535585 129.284996,227.918932 L181.860016,279.934643 C186.290495,284.317989 193.438335,284.317989 197.868814,279.934643 L206.906991,270.992616 C211.337471,266.609269 211.337471,259.537471 206.906991,255.154124 L154.331972,203.138413 C152.087196,200.975962 149.192616,199.865515 146.298036,199.865515 Z" id="Shape" fill="#688236"></path>
                <g id="Group" transform="translate(105.000000, 168.000000)" fill="#FFFFFF">
                    <path d="M108.468229,99.8284375 L99.4635417,108.833125 C94.1078125,114.188854 85.3973958,114.188854 80.0416667,108.833125 L27.6614583,56.4529167 C22.3057292,51.0971875 22.3057292,42.3867708 27.6614583,37.0310417 L36.6661458,28.0263542 C42.021875,22.670625 50.7322917,22.670625 56.0880208,28.0263542 L108.468229,80.4065625 C113.823958,85.7622917 113.823958,94.4727083 108.468229,99.8284375 Z" id="Shape"></path>
                    <path d="M14.83125,35.2065625 L34.8416667,15.1961458 C36.5484375,13.489375 36.5484375,10.7232292 34.8416667,9.01645833 L27.6614583,1.83625 C25.9546875,0.129479167 23.1885417,0.129479167 21.4817708,1.83625 L1.47135417,21.8466667 C-0.235416667,23.5534375 -0.235416667,26.3195833 1.47135417,28.0263542 L8.6515625,35.2065625 C10.3583333,36.9133333 13.1244792,36.9133333 14.83125,35.2065625 Z" id="Shape"></path>
                </g>
                <path d="M22.6557805,193.34422 C-3.6497129,167.038726 -3.53201494,124.314368 22.8911764,97.8911764 C49.3143677,71.4679851 92.0387261,71.3502871 118.34422,97.6557805 C144.649713,123.961274 144.532015,166.685632 118.108824,193.108824 C91.6856323,219.532015 48.9024249,219.649713 22.6557805,193.34422 Z" id="Shape" fill="#8FAD55"></path>
                <path d="M28.6557805,188.325425 C2.3502871,162.024218 2.46798506,119.306821 28.8911764,92.8879353 C55.3143677,66.4690494 98.0387261,66.3513706 124.34422,92.6525778 C150.649713,118.953785 150.532015,161.671182 124.108824,188.090068 C97.6856323,214.567793 54.9612739,214.626633 28.6557805,188.325425 Z" id="Shape" fill="#FFE37E"></path>
                <path d="M34.3300068,181.800119 C11.135035,158.808591 11.2530756,121.483922 34.5070676,98.3753884 C57.82008,75.266855 95.4750214,75.2083523 118.669993,98.1998806 C141.864965,121.191409 141.746924,158.516078 118.492932,181.624612 C95.17992,204.733145 57.5249786,204.791648 34.3300068,181.800119 Z" id="Shape" fill="#FFFFFF"></path>
                <path d="M75.2289569,202 C59.5262196,202 43.8234823,196.021808 31.9292448,184.124034 C20.3279687,172.519309 14,157.104951 14,140.635619 C14.0585923,124.224896 20.4451534,108.751929 32.1050217,97.0885938 C56.127866,73.0586069 95.15034,72.9413875 119.114592,96.9127647 C143.020252,120.825532 142.961659,159.859608 118.938815,183.948205 C106.868801,195.963198 91.0488787,202 75.2289569,202 Z M75.7562876,83.8427962 C61.2253964,83.8427962 46.6359129,89.41072 35.5033753,100.487958 C24.7809838,111.213537 18.8631612,125.4557 18.8045689,140.577009 C18.7459766,155.698318 24.6052069,169.940481 35.3275984,180.607451 C46.2843591,191.567469 60.756658,197.076783 75.2289569,197.076783 C89.7598481,197.076783 104.349332,191.508859 115.481869,180.431622 C137.62976,158.277146 137.688352,122.349385 115.657646,100.312129 C104.700885,89.3521102 90.2285865,83.8427962 75.7562876,83.8427962 Z" id="Shape" fill="#688236"></path>
                <path d="M46.233145,170.74798 C29.873187,154.392325 29.9322482,127.821766 46.3512675,111.348019 C62.7702867,94.9333181 89.406897,94.8742724 105.766855,111.229928 C122.126813,127.585583 122.067752,154.156142 105.648733,170.629889 C89.2297133,187.103635 62.593103,187.103635 46.233145,170.74798 Z" id="Shape" fill="#FFE37E"></path>
                <path d="M75.7919488,184 C64.0986528,184 53.0484881,179.439586 44.8047144,171.19576 C36.5024742,162.893468 31.9420888,151.843233 32.0005553,140.091396 C32.0005553,128.33956 36.6194072,117.289325 44.9801138,108.928566 C62.169259,91.7393124 90.1162364,91.6808456 107.188449,108.811632 C124.319127,125.942419 124.260661,153.831106 107.071516,171.02036 C98.7692754,179.322652 87.6606442,183.941533 75.9088817,184 C75.9088817,184 75.8504153,184 75.7919488,184 Z M76.2012141,100.860141 C66.1449796,100.860141 56.088745,104.718953 48.3711697,112.37811 C40.9459267,119.8034 36.8532731,129.625831 36.8532731,140.091396 C36.8532731,150.556962 40.8874602,160.379393 48.2542367,167.746216 C55.6210132,175.113039 65.3849154,179.147252 75.7919488,179.147252 C75.8504153,179.147252 75.8504153,179.147252 75.9088817,179.147252 C86.3743817,179.147252 96.1967503,175.054572 103.621993,167.629282 C118.940211,152.310968 118.998677,127.462557 103.738926,112.261176 C96.1967503,104.660486 86.1989822,100.860141 76.2012141,100.860141 Z" id="Shape" fill="#688236"></path>
                <polygon id="Shape" fill="#D5D5D5" points="210 245.875 181.875 274 135 227.125 163.125 199"></polygon>
                <g id="Group" transform="translate(135.000000, 199.000000)" fill="#8FAD55">
                    <rect id="Rectangle-path" transform="translate(18.694162, 19.013966) rotate(-45.000000) translate(-18.694162, -19.013966) " x="-1.08074642" y="12.4222322" width="39.549816" height="13.1834673"></rect>
                    <rect id="Rectangle-path" transform="translate(55.968871, 56.285007) rotate(-45.000000) translate(-55.968871, -56.285007) " x="36.1939633" y="49.6932731" width="39.549816" height="13.1834673"></rect>
                </g>
                <path d="M215.272117,247.458464 L162.83828,195.172343 C158.360784,190.70746 151.821283,189.414994 146.165498,191.294945 L141.098857,186.242578 L141.570173,185.77259 C142.86629,184.480125 143.573263,182.776419 143.573263,180.955218 C143.573263,179.134016 142.86629,177.43031 141.570173,176.137845 L138.388794,172.965428 C152.233683,146.587374 148.109674,113.335751 126.016765,91.3050818 C98.7983007,64.1632976 54.3768248,64.222046 26.9816175,91.5400756 C26.0979012,92.4213024 22.5041213,96.0049579 21.6204049,96.8861846 C8.36465946,110.104586 1.05927085,127.670373 1.00035643,146.293632 C0.941442002,164.91689 8.18791619,182.482677 21.3847472,195.64233 C34.9939792,209.213222 52.8450498,215.969294 70.6961203,215.969294 C84.4231812,215.969294 98.2091565,211.974399 110.050956,203.98461 L111.877303,205.805812 C113.232335,207.157027 114.940853,207.803259 116.708286,207.803259 C118.475718,207.803259 120.184237,207.157027 121.539268,205.805812 L122.010584,205.335825 L127.077224,210.388191 C125.133048,216.028043 126.429166,222.549121 130.965576,227.014003 L183.399414,279.300124 C186.580793,282.47254 190.704803,284 194.828812,284 C198.952822,284 203.135746,282.413792 206.258211,279.300124 L215.272117,270.311611 C221.575961,263.966778 221.575961,253.744548 215.272117,247.458464 Z M76.764306,75.9129877 C93.3781737,75.9129877 109.992041,82.1990719 122.599728,94.7712404 C147.932931,120.033074 147.815102,161.215738 122.36407,186.595069 C109.57964,199.343483 92.8479438,205.688315 76.1162474,205.688315 C59.5023797,205.688315 42.8885121,199.402231 30.2808253,186.830063 C18.026625,174.610385 11.2514662,158.278316 11.3103807,140.947523 C11.3692951,123.61673 18.1444539,107.28466 30.516483,94.9474857 C43.300913,82.2578204 60.0326095,75.9129877 76.764306,75.9129877 Z M24.9196127,192.176172 C12.6654124,179.956494 5.89025364,163.624425 5.94916806,146.293632 C5.94916806,143.473706 6.12591134,140.65378 6.53831231,137.833855 C6.47939788,138.832578 6.47939788,139.890051 6.47939788,140.888774 C6.42048346,159.512033 13.6669576,177.07782 26.8637887,190.237473 C40.4730207,203.808365 58.3240912,210.564437 76.1751618,210.564437 C77.2945358,210.564437 78.3549955,210.505688 79.4743695,210.505688 C76.5875627,210.858179 73.700756,211.093173 70.8139492,211.093173 C54.1411671,211.093173 37.5272995,204.807088 24.9196127,192.176172 Z M118.122232,202.339654 C117.768745,202.692144 117.29743,202.927138 116.7672,202.927138 C116.23697,202.927138 115.765655,202.750893 115.412168,202.339654 L114.116051,201.047188 C116.354799,199.343483 118.475718,197.463532 120.478809,195.407336 C121.362525,194.52611 122.246242,193.586134 123.071043,192.646159 C124.013674,191.823681 124.956305,190.942454 125.840021,190.061227 C129.728373,186.18383 133.086496,181.895193 135.914388,177.371562 L138.153136,179.604003 C138.506623,179.956494 138.74228,180.426481 138.74228,180.955218 C138.74228,181.483954 138.565537,181.953941 138.153136,182.306432 L118.122232,202.339654 Z M129.55163,205.864561 L125.545449,201.869666 L137.681821,189.767485 L141.688002,193.76238 C141.098857,194.232367 140.509713,194.702355 139.979483,195.231091 L130.965576,204.219604 C130.435347,204.689592 129.964031,205.277076 129.55163,205.864561 Z M134.441527,223.547844 C130.022946,219.14171 130.022946,212.033148 134.441527,207.627014 L143.455434,198.638501 C145.635268,196.464808 148.522075,195.348588 151.408882,195.348588 C154.295688,195.348588 157.182495,196.464808 159.362329,198.638501 L160.422788,199.695973 L135.443073,224.605316 L134.441527,223.547844 Z M139.095767,227.89523 L163.721996,203.338377 L169.613439,209.213222 L144.987209,233.770075 L139.095767,227.89523 Z M148.46316,237.236233 L173.08939,212.679381 L197.715619,237.236233 L173.08939,261.793086 L148.46316,237.236233 Z M182.515698,271.134089 L176.624255,265.259244 L201.250484,240.702392 L207.141927,246.577237 L182.515698,271.134089 Z M211.796166,266.845452 L202.78226,275.833965 C198.363678,280.240099 191.235032,280.240099 186.816451,275.833965 L185.755991,274.776493 L210.735707,249.86715 L211.796166,250.924622 C213.917086,253.039566 215.095374,255.859492 215.095374,258.855663 C215.095374,261.851834 213.976,264.67176 211.796166,266.845452 Z" id="Shape" fill="#688236"></path>
                <ellipse id="Oval" fill="#8FAD55" cx="88.5" cy="285" rx="67.5" ry="5"></ellipse>
            </g>
        </g>
    </g>
</svg>